#!OML:ASF X:\für Bonn\!DataBase\2005_08_10_Bjorn_Final\c3d\bjorn.ASF
:FULLY-SPECIFIED
:DEGREES
47
root -34.2186 18.7021 4.30174 -168.737 -234.55 -175.093
lowerback -2.73365 -2.12578 -8.88893
upperback 7.82259 -1.55403 -4.77362
thorax 10.0719 -1.12959 -0.33253
lowerneck -1.12641 -0.806449 -0.484394
upperneck 11.892 -1.7694 7.9283
head 4.22579 -0.500217 2.71365
rclavicle 1.7334e-013 4.77083e-015
rhumerus -47.9062 -3.30619 -98.7187
rradius 46.6873
rwrist -15.6584
rhand -14.3768 16.0207
rfingers 7.12502
rthumb 11.7658 -13.6288
lclavicle 1.7334e-013 4.77083e-015
lhumerus -24.4854 -20.934 84.9948
lradius 74.9265
lwrist -4.38948
lhand -32.1916 -16.7088
lfingers 7.12502
lthumb -5.43372 13.2016
rfemur -30.7495 -7.82583 14.9095
rtibia 59.0919
rfoot -19.6642 17.2649
rtoes -13.8571
lfemur -4.45039 12.9856 -23.7653
ltibia 30.8398
lfoot -22.1427 -6.36577
ltoes -10.7481
48
root -34.1576 18.6924 4.34394 -168.973 -234.081 -175.335
lowerback -2.68934 -2.10667 -8.7848
upperback 7.9013 -1.55 -4.6426
thorax 10.1308 -1.13059 -0.250555
lowerneck -1.18329 -0.722955 -0.573973
upperneck 11.7576 -1.63491 7.78272
head 4.17934 -0.448509 2.68128
rclavicle 4.6118e-014 1.43125e-014
rhumerus -48.1721 -3.0387 -98.7692
rradius 47.0822
rwrist -15.8889
rhand -14.7223 16.3331
rfingers 7.12502
rthumb 11.4325 -13.3352
lclavicle 4.6118e-014 1.43125e-014
lhumerus -24.3976 -21.1034 84.8342
lradius 75.7164
lwrist -4.40933
lhand -32.5617 -16.6858
lfingers 7.12502
lthumb -5.79102 13.215
rfemur -31.1206 -7.66967 15.0023
rtibia 59.2081
rfoot -19.6566 17.4041
rtoes -13.3706
lfemur -4.04042 12.6338 -23.6575
ltibia 30.6837
lfoot -22.1452 -6.26519
ltoes -10.7546
49
root -34.0956 18.6815 4.38693 -169.126 -233.622 -175.497
lowerback -2.64808 -2.08709 -8.68945
upperback 7.96686 -1.5413 -4.55022
thorax 10.1762 -1.1271 -0.204132
lowerneck -1.21297 -0.635037 -0.638148
upperneck 11.5923 -1.49694 7.6745
head 4.11697 -0.393258 2.65668
rclavicle -3.65764e-014 1.90833e-014
rhumerus -48.4443 -2.76821 -98.8576
rradius 47.5027
rwrist -16.2418
rhand -15.138 16.704
rfingers 7.12502
rthumb 11.0317 -12.9861
lclavicle -3.65764e-014 1.90833e-014
lhumerus -24.362 -21.2776 84.6351
lradius 76.4979
lwrist -4.53696
lhand -32.9008 -16.5807
lfingers 7.12502
lthumb -6.11848 13.3109
rfemur -31.5164 -7.5129 15.0372
rtibia 59.3297
rfoot -19.7158 17.5138
rtoes -13.211
lfemur -3.64772 12.2912 -23.6023
ltibia 30.5392
lfoot -22.2161 -6.16582
ltoes -10.97
50
root -34.033 18.6673 4.43062 -169.266 -233.147 -175.659
lowerback -2.6462 -2.05881 -8.59654
upperback 8.0724 -1.51141 -4.45622
thorax 10.2897 -1.11535 -0.15592
lowerneck -1.36042 -0.549321 -0.69524
upperneck 11.4457 -1.36713 7.57387
head 4.08521 -0.3387 2.63459
rclavicle 1.59028e-014 4.45278e-014
rhumerus -48.5934 -2.49471 -98.9486
rradius 47.9029
rwrist -16.6465
rhand -15.6082 17.0462
rfingers 7.12502
rthumb 10.5781 -12.6676
lclavicle 1.59028e-014 4.45278e-014
lhumerus -24.2212 -21.4156 84.4008
lradius 77.2301
lwrist -4.71051
lhand -33.1736 -16.5941
lfingers 7.12502
lthumb -6.38176 13.2897
rfemur -31.9465 -7.37693 15.0672
rtibia 59.4553
rfoot -19.7521 17.6075
rtoes -13.0362
lfemur -3.26865 11.9581 -23.562
ltibia 30.4126
lfoot -22.3204 -6.0212
ltoes -11.3515
51
root -33.9709 18.6508 4.47452 -169.392 -232.717 -175.804
lowerback -2.60465 -2.03722 -8.49829
upperback 8.16571 -1.49656 -4.36711
thorax 10.366 -1.10908 -0.115264
lowerneck -1.43134 -0.454459 -0.74092
upperneck 11.2115 -1.22101 7.49167
head 4.00668 -0.278185 2.61494
rclavicle -1.59028e-015 1.59028e-015
rhumerus -48.7239 -2.24098 -99.0157
rradius 48.2967
rwrist -17.0162
rhand -16.0463 17.343
rfingers 7.12502
rthumb 10.1555 -12.3919
lclavicle -1.59028e-015 1.59028e-015
lhumerus -24.0986 -21.5662 84.1405
lradius 77.9175
lwrist -4.86634
lhand -33.3965 -16.7162
lfingers 7.12502
lthumb -6.59704 13.161
rfemur -32.3778 -7.27089 15.0895
rtibia 59.5928
rfoot -19.8769 17.6255
rtoes -13.0235
lfemur -2.9001 11.5193 -23.5455
ltibia 30.3066
lfoot -22.4623 -5.75291
ltoes -11.874
52
root -33.9075 18.6326 4.51959 -169.509 -232.28 -175.949
lowerback -2.57389 -2.00123 -8.35858
upperback 8.26605 -1.45951 -4.31663
thorax 10.4524 -1.08661 -0.13683
lowerneck -1.54758 -0.371196 -0.721534
upperneck 10.9941 -1.09661 7.42171
head 3.94393 -0.223542 2.58762
rclavicle -6.20208e-014 6.36111e-015
rhumerus -48.8328 -2.04342 -99.1259
rradius 48.7218
rwrist -17.4237
rhand -16.453 17.5775
rfingers 7.12502
rthumb 9.76312 -12.1762
lclavicle -6.20208e-014 6.36111e-015
lhumerus -23.9525 -21.7705 83.8261
lradius 78.6202
lwrist -4.96089
lhand -33.5609 -16.8805
lfingers 7.12502
lthumb -6.7557 12.9918
rfemur -32.8355 -7.21127 15.1081
rtibia 59.7334
rfoot -19.9872 17.6325
rtoes -13.1
lfemur -2.5509 10.943 -23.5782
ltibia 30.2312
lfoot -22.6703 -5.38576
ltoes -12.217
53
root -33.844 18.6125 4.56539 -169.654 -231.865 -176.09
lowerback -2.45761 -1.98151 -8.2365
upperback 8.33924 -1.45806 -4.24572
thorax 10.4599 -1.08196 -0.126164
lowerneck -1.53041 -0.259392 -0.808185
upperneck 10.6893 -0.928372 7.42762
head 3.82487 -0.152805 2.60473
rclavicle -1.7016e-013 0
rhumerus -49.002 -1.79518 -99.1924
rradius 49.1769
rwrist -17.8558
rhand -16.7923 17.8302
rfingers 7.12502
rthumb 9.43577 -11.9386
lclavicle -1.7016e-013 0
lhumerus -23.9308 -21.9145 83.5721
lradius 79.3343
lwrist -4.98254
lhand -33.7228 -17.0787
lfingers 7.12502
lthumb -6.91203 12.7884
rfemur -33.2621 -7.16907 15.1128
rtibia 59.8734
rfoot -20.065 17.6383
rtoes -12.7977
lfemur -2.18644 10.3288 -23.6212
ltibia 30.1894
lfoot -22.8923 -4.92498
ltoes -12.4977
54
root -33.7789 18.5904 4.61208 -169.861 -231.472 -176.327
lowerback -2.36207 -1.94929 -7.99525
upperback 8.42365 -1.44299 -4.20041
thorax 10.4849 -1.06011 -0.208019
lowerneck -1.3961 -0.167513 -0.839853
upperneck 10.1934 -0.779053 7.44996
head 3.61717 -0.0949777 2.61104
rclavicle -7.15625e-015 -3.18055e-015
rhumerus -49.144 -1.62026 -99.2963
rradius 49.6597
rwrist -18.3354
rhand -17.0777 18.0091
rfingers 7.12502
rthumb 9.16032 -11.7719
lclavicle -7.15625e-015 -3.18055e-015
lhumerus -23.8822 -22.1791 83.2439
lradius 80.0787
lwrist -4.84753
lhand -33.9022 -17.3075
lfingers 7.12502
lthumb -7.08517 12.5539
rfemur -33.7136 -7.13332 15.1856
rtibia 60.0174
rfoot -20.1712 17.5404
rtoes -12.7968
lfemur -1.84561 9.75031 -23.6016
ltibia 30.1868
lfoot -23.1309 -4.60743
ltoes -12.2017
55
root -33.7136 18.5669 4.65948 -170.035 -231.124 -176.512
lowerback -2.21872 -1.94948 -7.83253
upperback 8.49745 -1.47615 -4.1073
thorax 10.4772 -1.06981 -0.198939
lowerneck -1.15124 -0.0530686 -0.90905
upperneck 9.56589 -0.58259 7.38804
head 3.3413 -0.0235333 2.59247
rclavicle 1.51076e-014 4.77083e-015
rhumerus -49.3316 -1.42698 -99.2984
rradius 50.1949
rwrist -18.7408
rhand -17.2734 18.132
rfingers 7.12502
rthumb 8.97152 -11.6573
lclavicle 1.51076e-014 4.77083e-015
lhumerus -23.9233 -22.3795 83.0187
lradius 80.8464
lwrist -4.64114
lhand -34.1153 -17.4677
lfingers 7.12502
lthumb -7.29084 12.3867
rfemur -34.1634 -7.11521 15.2246
rtibia 60.1619
rfoot -20.2927 17.3924
rtoes -12.8639
lfemur -1.52425 9.24344 -23.6018
ltibia 30.2193
lfoot -23.3838 -4.28906
ltoes -12.1184
56
root -33.6467 18.5421 4.70728 -170.275 -230.777 -176.768
lowerback -2.03854 -1.92676 -7.55836
upperback 8.56678 -1.48611 -4.06186
thorax 10.4337 -1.05569 -0.297582
lowerneck -0.831721 0.044305 -0.86628
upperneck 8.83118 -0.407465 7.33021
head 3.01839 0.0384897 2.5512
rclavicle -6.20208e-014 0
rhumerus -49.5129 -1.33602 -99.3573
rradius 50.7337
rwrist -19.1906
rhand -17.4058 18.2895
rfingers 7.12502
rthumb 8.84377 -11.5052
lclavicle -6.20208e-014 0
lhumerus -23.9596 -22.6872 82.6987
lradius 81.6141
lwrist -4.41232
lhand -34.2572 -17.5883
lfingers 7.12502
lthumb -7.42784 12.2613
rfemur -34.624 -7.08731 15.3011
rtibia 60.3147
rfoot -20.4063 17.2387
rtoes -13.2042
lfemur -1.20335 8.94398 -23.5217
ltibia 30.2802
lfoot -23.6231 -4.10027
ltoes -12.1539
57
root -33.5775 18.5146 4.75637 -170.498 -230.42 -177.031
lowerback -1.86813 -1.90893 -7.29904
upperback 8.60848 -1.50556 -3.98684
thorax 10.3666 -1.04864 -0.356602
lowerneck -0.496477 0.153291 -0.849791
upperneck 8.11599 -0.215758 7.25669
head 2.70315 0.107942 2.51044
rclavicle 1.11319e-014 -4.29375e-014
rhumerus -49.7733 -1.20557 -99.3671
rradius 51.3439
rwrist -19.6208
rhand -17.5313 18.4313
rfingers 7.12502
rthumb 8.72267 -11.3684
lclavicle 1.11319e-014 -4.29375e-014
lhumerus -24.0505 -22.9594 82.4366
lradius 82.3284
lwrist -4.14108
lhand -34.4078 -17.6985
lfingers 7.12502
lthumb -7.57317 12.1459
rfemur -35.1128 -7.0405 15.3709
rtibia 60.4699
rfoot -20.5787 17.0473
rtoes -13.8154
lfemur -0.898289 8.79109 -23.4324
ltibia 30.3594
lfoot -23.9049 -3.89003
ltoes -12.5201
58
root -33.5065 18.4857 4.80726 -170.73 -230.079 -177.284
lowerback -1.68105 -1.9126 -7.06805
upperback 8.66756 -1.55306 -3.88725
thorax 10.313 -1.0592 -0.377216
lowerneck -0.319309 0.264943 -0.873759
upperneck 7.54721 -0.0268391 7.12046
head 2.46982 0.179638 2.46041
rclavicle -9.54166e-014 2.22639e-014
rhumerus -49.9967 -1.00413 -99.3452
rradius 51.9566
rwrist -20.1595
rhand -17.6351 18.6179
rfingers 7.12502
rthumb 8.62244 -11.186
lclavicle -9.54166e-014 2.22639e-014
lhumerus -24.1582 -23.2343 82.1833
lradius 83.0599
lwrist -3.81545
lhand -34.5642 -17.7189
lfingers 7.12502
lthumb -7.72412 12.12
rfemur -35.5999 -6.96664 15.4162
rtibia 60.6273
rfoot -20.7468 16.8751
rtoes -14.4414
lfemur -0.56594 8.68688 -23.3414
ltibia 30.4314
lfoot -24.1669 -3.71583
ltoes -12.9097
59
root -33.4338 18.4563 4.85943 -170.947 -229.747 -177.536
lowerback -1.48946 -1.89973 -6.80672
upperback 8.72918 -1.57651 -3.81596
thorax 10.256 -1.05382 -0.44209
lowerneck -0.222501 0.354772 -0.796516
upperneck 7.00465 0.127578 6.97235
head 2.2634 0.239547 2.38897
rclavicle -1.51076e-014 2.22639e-014
rhumerus -50.192 -0.844672 -99.3488
rradius 52.5999
rwrist -20.6818
rhand -17.7861 18.8546
rfingers 7.12502
rthumb 8.47676 -10.9553
lclavicle -1.51076e-014 2.22639e-014
lhumerus -24.2265 -23.6629 81.8899
lradius 83.7371
lwrist -3.51796
lhand -34.7914 -17.6278
lfingers 7.12502
lthumb -7.94343 12.203
rfemur -36.1128 -6.90592 15.4601
rtibia 60.7884
rfoot -20.8866 16.7063
rtoes -15.2209
lfemur -0.222447 8.58312 -23.2634
ltibia 30.4753
lfoot -24.4408 -3.3931
ltoes -13.748
